<?xml version="1.0" standalone="no"?>
<!DOCTYPE svg PUBLIC "-//W3C//DTD SVG 20010904//EN"
 "http://www.w3.org/TR/2001/REC-SVG-20010904/DTD/svg10.dtd">
<svg version="1.0" xmlns="http://www.w3.org/2000/svg"
 width="960.000000pt" height="960.000000pt" viewBox="0 0 960.000000 960.000000"
 preserveAspectRatio="xMidYMid meet">

<g transform="translate(0.000000,960.000000) scale(0.100000,-0.100000)"
fill="#000000" stroke="none">
<path d="M0 7697 c0 -1509 3 -1906 12 -1916 11 -11 11 -14 0 -18 -9 -4 -12
-590 -12 -2884 l0 -2879 4036 0 4036 0 -6 43 c-3 23 -8 59 -12 79 -6 36 -5 37
31 44 38 7 99 3 235 -16 41 -6 91 -12 110 -14 74 -7 130 -19 130 -27 0 -5 11
-9 24 -9 13 0 38 -6 56 -14 30 -12 31 -14 14 -25 -16 -9 -13 -10 18 -5 20 3
46 3 57 -1 29 -9 27 -29 -3 -21 -30 7 -40 -3 -18 -20 13 -10 113 -13 455 -14
l437 0 0 560 0 561 -22 -15 c-12 -9 -29 -16 -36 -16 -8 0 -48 -14 -90 -30 -42
-17 -87 -30 -101 -28 -23 3 -21 5 19 24 25 12 59 27 77 34 17 6 40 21 50 32
30 34 72 51 89 37 12 -10 14 171 14 1343 l0 1355 -35 6 c-19 3 -63 4 -97 3
-35 -2 -74 -1 -88 2 -42 9 63 32 148 32 l72 0 0 192 c0 161 -3 194 -16 209
-11 13 -17 43 -20 104 -3 80 -1 88 16 92 20 5 20 24 20 1374 l0 1369 -36 0
c-40 0 -113 18 -128 32 -6 4 -16 8 -23 8 -20 0 -72 61 -82 98 -11 37 1 93 25
117 24 24 63 29 118 17 28 -7 68 -14 89 -17 l37 -6 0 1056 0 1055 -840 0
c-612 0 -840 -3 -840 -11 0 -7 -8 -9 -20 -5 -11 3 -29 9 -40 12 -14 5 -20 2
-20 -10 0 -20 -34 -21 -54 -1 -12 12 -54 15 -246 15 l-232 0 3 -47 c2 -54 -7
-100 -24 -124 -16 -20 -45 -31 -52 -19 -12 19 -64 11 -75 -11 -7 -11 -27 -27
-46 -35 -30 -12 -39 -12 -70 1 -49 20 -84 19 -114 -5 -33 -25 -69 -25 -118 1
-35 19 -47 21 -91 12 -63 -13 -85 3 -69 49 8 23 6 41 -13 91 -12 34 -27 68
-32 75 -7 9 -287 12 -1339 12 l-1330 0 -28 -30 c-15 -16 -37 -30 -49 -30 -12
0 -21 -5 -21 -10 0 -7 -6 -7 -19 0 -25 13 -68 13 -76 0 -12 -20 -23 -9 -29 30
l-6 40 -1855 0 -1855 0 0 -1903z m4323 1802 c11 -40 -4 -79 -35 -95 -46 -24
-86 -7 -137 59 -12 15 -11 20 4 37 15 16 31 20 90 20 66 0 73 -2 78 -21z m195
-41 c17 -15 15 -107 -4 -143 -8 -16 -11 -31 -6 -33 5 -1 5 -21 1 -45 -5 -23
-13 -69 -18 -102 -6 -33 -18 -99 -27 -147 -9 -48 -14 -95 -10 -103 3 -9 3 -27
0 -41 -5 -20 -12 -24 -46 -22 -24 1 -43 -4 -48 -12 -5 -8 -24 -13 -44 -12 -23
1 -38 -4 -44 -15 -11 -19 -115 -27 -145 -11 -13 7 -25 5 -43 -7 -28 -18 -31
-43 -6 -52 9 -4 22 -13 28 -22 10 -12 18 -10 58 17 46 32 86 42 86 22 0 -5 7
-10 15 -10 9 0 12 -6 9 -15 -5 -11 -2 -13 10 -9 12 5 19 0 23 -15 5 -21 46
-30 57 -12 9 14 56 0 67 -22 11 -19 9 -19 -72 -14 -46 3 -93 7 -104 9 -13 2
-23 -5 -30 -19 -11 -26 -27 -29 -44 -10 -25 31 -162 -7 -279 -75 -34 -21 -36
-46 -1 -28 28 15 23 1 -8 -27 -42 -36 -88 -65 -139 -88 -17 -8 -36 -21 -44
-29 -18 -23 -33 -20 -25 5 6 18 5 19 -13 8 -11 -7 -22 -24 -25 -37 -4 -19 -1
-23 14 -19 26 7 24 1 -5 -19 -17 -11 -30 -13 -42 -6 -19 11 -98 -28 -108 -53
-3 -8 -13 -15 -21 -15 -12 0 -15 6 -10 23 4 12 11 26 16 32 5 5 9 17 9 27 0
10 8 21 18 25 9 3 27 15 39 26 12 10 26 17 31 13 10 -6 26 9 66 59 13 17 40
37 60 45 23 9 36 20 36 32 0 10 7 21 15 24 8 4 15 14 15 23 0 9 6 26 14 37 11
16 12 30 6 60 -5 21 -13 109 -16 195 l-7 156 38 28 c26 21 54 31 97 36 59 7
84 18 60 26 -7 3 -20 12 -29 21 -9 9 -21 17 -27 19 -6 1 -31 6 -55 10 -25 5
-49 16 -55 26 -16 26 36 67 84 67 56 0 110 19 110 38 0 11 3 13 8 6 25 -37
149 -40 175 -4 33 46 94 48 142 4 42 -39 96 -29 123 23 11 20 5 83 -12 124
-17 39 42 58 82 27z m1033 -78 c32 -18 15 -90 -22 -90 -5 0 -9 -10 -9 -22 0
-32 -69 -107 -100 -109 -47 -4 -58 1 -63 28 -6 34 1 53 22 53 18 1 92 39 76
40 -16 0 -5 69 13 91 18 21 53 25 83 9z m-1531 -51 c0 -11 -27 -12 -34 0 -3 4
-3 11 0 14 8 8 34 -3 34 -14z m2880 -19 c0 -5 -4 -10 -10 -10 -5 0 -10 5 -10
10 0 6 5 10 10 10 6 0 10 -4 10 -10z m-6580 -322 c0 -4 -4 -10 -10 -13 -5 -3
-10 -37 -10 -74 0 -47 -4 -72 -14 -80 -10 -8 -16 -9 -21 -1 -3 5 -19 10 -36
10 -27 0 -29 2 -29 40 0 43 29 110 63 148 l21 23 18 -23 c10 -13 18 -26 18
-30z m4370 -152 c0 -3 -4 -8 -10 -11 -5 -3 -10 -1 -10 4 0 6 5 11 10 11 6 0
10 -2 10 -4z m-170 -74 c0 -15 -11 -21 -27 -15 -12 5 -12 7 -1 14 17 11 28 11
28 1z m1849 -16 c13 -16 0 -30 -37 -39 -20 -5 -22 -2 -16 16 11 36 34 46 53
23z m-129 -16 c0 -5 -4 -10 -10 -10 -5 0 -10 5 -10 10 0 6 5 10 10 10 6 0 10
-4 10 -10z m-1620 -9 c0 -14 -18 -23 -30 -16 -6 4 -8 11 -5 16 8 12 35 12 35
0z m-268 -13 c7 7 16 12 21 12 5 0 2 -7 -7 -15 -19 -20 -42 -19 -50 1 -5 14
-4 15 9 4 12 -10 19 -10 27 -2z m138 -5 c-1 -11 -26 -43 -34 -43 -10 0 -7 25
6 38 13 13 28 16 28 5z m50 -48 c0 -8 -6 -15 -14 -15 -8 0 -21 -3 -30 -6 -9
-3 -16 -1 -16 6 0 6 4 9 9 6 5 -3 14 1 21 9 16 19 30 19 30 0z m150 -25 c-8
-5 -26 -10 -40 -10 -20 0 -22 2 -10 10 8 5 26 10 40 10 20 0 22 -2 10 -10z
m-403 -26 c-3 -3 -12 -4 -19 -1 -8 3 -5 6 6 6 11 1 17 -2 13 -5z m140 -20 c-3
-3 -12 -4 -19 -1 -8 3 -5 6 6 6 11 1 17 -2 13 -5z m43 -14 c0 -5 -2 -10 -4
-10 -3 0 -8 5 -11 10 -3 6 -1 10 4 10 6 0 11 -4 11 -10z m75 1 c11 -5 20 -14
20 -22 0 -19 50 -24 86 -9 16 7 37 9 46 5 17 -6 17 -7 -1 -17 -26 -14 -138
-11 -148 4 -6 10 -8 10 -8 1 0 -7 -4 -13 -10 -13 -5 0 -10 6 -10 14 0 18 -27
29 -34 13 -2 -7 -5 -2 -5 11 -1 24 23 29 64 13z m669 -51 c3 -14 3 -19 0 -11
-5 11 -8 11 -15 0 -11 -18 -24 14 -15 38 8 20 21 8 30 -27z m-458 5 c10 -8 14
-15 7 -15 -19 0 -43 11 -43 21 0 13 14 11 36 -6z m594 -84 c5 -11 10 -30 10
-42 0 -20 -2 -21 -14 -9 -17 19 -30 70 -17 70 6 0 15 -9 21 -19z m104 -92 c-8
-14 -21 -10 -28 7 -10 25 5 40 20 19 7 -10 11 -22 8 -26z m-418 4 c-10 -10
-19 5 -10 18 6 11 8 11 12 0 2 -7 1 -15 -2 -18z m284 -4 c18 -14 26 -28 23
-38 -4 -13 -3 -13 5 -2 6 8 17 11 26 8 18 -7 22 -27 6 -27 -5 0 -10 6 -10 13
0 8 -4 7 -10 -3 -13 -21 -12 -27 5 -34 24 -9 46 4 40 24 -8 24 13 36 22 13 9
-25 57 -66 62 -52 2 6 -2 15 -9 19 -6 4 -10 18 -8 31 3 22 5 20 22 -16 11 -22
19 -52 18 -67 -1 -16 1 -28 6 -28 4 0 16 -23 27 -51 10 -29 29 -61 41 -72 24
-20 35 -75 13 -61 -8 5 -8 1 0 -14 6 -11 11 -33 11 -49 0 -25 -3 -22 -27 24
-26 51 -42 61 -38 26 4 -36 17 -73 26 -73 5 0 6 -18 3 -40 -6 -35 -4 -40 12
-40 18 -1 18 -1 1 -14 -12 -10 -15 -16 -7 -21 16 -10 23 1 22 35 0 16 3 32 8
35 5 3 6 13 3 23 -5 16 -4 16 13 -1 15 -14 16 -19 6 -26 -12 -7 -12 -12 -1
-30 8 -11 21 -22 29 -22 47 -4 62 -7 90 -19 16 -7 30 -16 30 -21 0 -4 12 -7
27 -6 19 1 28 -3 31 -17 2 -11 0 -16 -6 -12 -6 3 -13 2 -17 -4 -11 -17 -59 1
-86 33 -16 19 -28 27 -32 19 -4 -6 1 -17 11 -24 10 -7 22 -26 26 -41 4 -16 11
-25 17 -21 6 3 24 -3 40 -15 38 -28 51 -27 43 4 -3 14 -2 25 2 25 10 0 39 -93
49 -154 6 -36 5 -38 -14 -33 -31 8 -26 -5 15 -41 21 -18 38 -44 40 -60 9 -69
13 -105 8 -89 -3 10 -12 16 -19 13 -9 -3 -12 0 -9 8 3 7 -6 23 -18 37 -27 30
-58 75 -58 86 0 4 5 1 10 -7 5 -8 10 -10 10 -5 0 18 -14 32 -40 40 -26 8 -60
42 -88 88 -9 15 -20 27 -25 27 -5 0 -4 -7 3 -15 6 -8 10 -22 8 -31 -2 -12 -13
-1 -36 35 -25 41 -30 56 -21 67 6 8 9 21 5 29 -7 19 -36 20 -36 0 0 -8 -4 -15
-10 -15 -5 0 -10 2 -10 4 0 2 -3 12 -7 22 -4 12 -3 15 5 10 14 -8 15 -5 6 18
-3 9 -14 16 -24 16 -17 0 -32 39 -36 95 -1 11 -2 30 -3 42 -1 16 -6 21 -16 17
-11 -5 -15 1 -15 22 -1 31 -27 85 -73 153 -19 28 -37 44 -58 48 -27 5 -29 8
-24 37 5 22 3 27 -4 16 -5 -8 -11 -12 -13 -10 -23 35 -26 49 -15 54 9 3 8 8
-3 18 -25 22 -50 75 -44 92 8 20 9 20 44 -5z m-463 5 c-3 -3 -12 -4 -19 -1 -8
3 -5 6 6 6 11 1 17 -2 13 -5z m-1377 -24 c0 -5 -2 -10 -4 -10 -3 0 -8 5 -11
10 -3 6 -1 10 4 10 6 0 11 -4 11 -10z m4989 -29 c43 -38 113 -81 133 -81 19 0
86 -60 91 -82 3 -13 14 -59 25 -103 20 -82 22 -111 8 -133 -4 -6 -5 -16 -2
-21 13 -21 -72 -231 -94 -231 -4 0 -11 -11 -14 -25 -4 -14 -18 -31 -31 -37
-14 -6 -25 -16 -25 -22 0 -12 -56 -46 -83 -50 -9 -1 -27 -12 -41 -25 -30 -28
-125 -41 -147 -19 -8 8 -36 20 -64 27 -69 17 -86 30 -114 87 -29 58 -77 132
-103 157 -10 10 -18 28 -19 40 -3 58 4 104 19 130 15 25 15 32 -1 95 -9 37
-17 75 -17 84 0 31 52 79 117 108 36 16 87 49 115 72 65 55 91 66 153 67 44 1
55 -3 94 -38z m-1044 -62 c19 -36 14 -59 -14 -59 -27 0 -31 10 -24 53 7 45 17
47 38 6z m-3972 -70 c-23 -24 -29 -26 -32 -12 -3 17 38 55 51 47 5 -3 -4 -19
-19 -35z m1147 7 c0 -23 45 -39 90 -31 40 7 42 6 35 -14 -7 -22 -6 -22 30 -7
21 9 41 13 47 10 5 -3 18 2 28 11 11 10 36 19 57 20 21 2 46 6 55 10 46 19 61
-21 32 -78 -32 -62 -34 -66 -23 -72 5 -4 22 -4 36 0 18 4 29 1 39 -12 20 -27
17 -55 -11 -87 -14 -16 -25 -35 -25 -43 0 -27 49 21 62 60 9 29 15 36 29 32
15 -5 24 4 41 42 13 26 28 47 33 46 6 -1 18 6 28 15 17 15 20 14 42 -13 13
-17 24 -39 24 -50 0 -20 30 -147 36 -153 2 -2 13 1 24 8 14 7 21 21 21 40 0
40 17 38 28 -2 l8 -33 7 40 c6 37 10 41 34 40 24 0 28 -5 31 -30 1 -16 7 -39
12 -50 13 -30 28 -85 35 -132 8 -51 41 -95 55 -73 6 8 10 27 10 42 0 15 5 30
12 34 7 5 9 1 6 -13 -3 -11 0 -27 7 -37 7 -9 11 -26 8 -37 -3 -10 0 -25 6 -33
7 -9 9 -29 5 -56 -4 -25 -3 -41 2 -38 5 3 15 0 22 -8 11 -12 10 -14 -3 -14
-17 0 -21 -26 -4 -32 6 -2 12 -33 14 -68 2 -44 8 -68 19 -76 9 -6 16 -17 16
-25 0 -8 7 -23 15 -33 8 -11 15 -29 15 -41 0 -12 4 -25 8 -30 5 -6 17 -37 27
-70 10 -33 24 -72 32 -87 7 -15 16 -63 19 -106 5 -63 3 -81 -9 -91 -13 -10
-18 -9 -27 8 -9 18 -8 21 7 22 12 0 13 2 5 6 -7 3 -24 -5 -37 -17 -26 -24 -54
-23 -90 4 -19 14 -18 15 18 32 39 19 46 34 23 53 -10 8 -21 8 -40 1 -41 -15
-51 -12 -32 9 10 11 15 24 12 30 -4 5 2 24 13 41 17 30 20 31 30 13 10 -16 11
-15 9 7 -2 14 -7 24 -13 23 -15 -2 -36 18 -29 28 3 5 0 9 -5 9 -6 0 -11 7 -11
15 0 8 -6 15 -14 15 -7 0 -17 8 -20 18 -13 35 -38 73 -52 79 -8 3 -14 10 -14
17 -1 12 -107 93 -130 98 -8 2 -21 11 -28 21 -8 10 -26 17 -48 17 -19 0 -60 8
-92 19 -116 38 -387 32 -400 -8 -2 -6 -11 -11 -19 -11 -9 0 -29 -15 -45 -32
-16 -18 -46 -38 -66 -43 -27 -8 -38 -17 -40 -34 -4 -22 -6 -23 -65 -17 -34 4
-89 9 -122 11 -110 9 -120 10 -126 19 -20 26 -193 42 -298 27 -97 -15 -145
-31 -183 -64 -16 -15 -33 -27 -37 -27 -18 0 -73 -34 -100 -61 -34 -34 -56 -38
-48 -9 3 12 -1 21 -12 25 -12 4 -18 18 -19 48 -4 59 -12 83 -22 66 -6 -9 -11
-5 -16 15 -4 16 -15 37 -24 46 -15 15 -17 30 -13 84 4 47 2 66 -6 66 -9 0 -9
5 -1 20 8 14 8 26 0 40 -9 17 -8 20 7 20 12 0 19 8 20 25 4 52 6 55 34 55 22
0 26 4 22 20 -4 16 1 23 26 33 17 6 31 15 31 19 0 4 7 8 15 8 8 0 15 4 15 10
0 5 15 13 33 18 24 6 32 14 31 30 -1 25 6 27 25 10 11 -11 13 -10 8 3 -4 11 3
20 19 28 13 6 24 15 24 21 0 6 8 10 18 8 11 -2 17 3 16 14 -1 10 2 15 7 12 5
-3 9 2 9 10 0 8 8 17 18 20 9 3 33 21 52 39 36 32 77 53 140 67 67 16 155 33
181 34 14 0 33 7 42 14 9 8 21 11 28 7 6 -4 15 -1 20 6 8 14 12 15 48 18 11 0
27 8 35 17 11 10 16 11 16 3 0 -6 11 0 25 15 13 14 31 26 40 26 8 0 15 5 15
10 0 7 6 7 20 0 11 -6 20 -17 20 -24z m55 -16 c3 -5 1 -10 -4 -10 -6 0 -11 5
-11 10 0 6 2 10 4 10 3 0 8 -4 11 -10z m-1225 -61 c0 -6 -9 -28 -19 -48 -11
-20 -22 -45 -26 -56 -6 -19 -7 -19 -16 -2 -13 22 -2 76 19 100 17 19 42 23 42
6z m4140 -8 c13 -25 13 -91 0 -91 -5 0 -10 -13 -10 -29 0 -39 37 -51 145 -48
72 2 85 -1 133 -27 28 -16 63 -44 77 -62 22 -28 25 -43 25 -111 0 -84 -20
-140 -70 -196 -72 -82 -150 -88 -235 -20 -41 33 -60 76 -70 157 -9 68 -34 118
-69 134 -22 10 -24 17 -25 90 -1 63 2 81 14 86 24 9 17 26 -10 26 -14 0 -35 8
-46 18 -19 18 -19 19 0 41 11 12 35 25 55 28 20 3 39 10 42 14 9 15 33 10 44
-10z m-4769 -17 c36 -15 98 -30 141 -35 43 -4 86 -10 97 -14 21 -6 77 -102 73
-125 -1 -9 12 -31 30 -51 25 -27 47 -38 91 -48 66 -14 60 6 63 -206 1 -77 4
-159 6 -183 3 -23 2 -57 -2 -75 -5 -19 -8 -24 -9 -12 -1 12 -4 16 -9 9 -9 -13
-89 -34 -131 -34 -17 0 -31 -5 -31 -10 0 -6 -8 -5 -20 2 -15 10 -23 10 -28 2
-4 -6 -23 -13 -42 -16 -26 -4 -38 0 -50 15 -9 10 -33 25 -55 32 -34 12 -42 12
-74 -4 -20 -10 -54 -21 -76 -25 -71 -12 -76 -16 -73 -44 3 -29 -15 -38 -57
-28 -24 6 -109 84 -138 126 -10 14 -28 40 -41 57 -13 18 -27 50 -31 70 -4 21
-16 54 -28 73 -29 46 -57 136 -57 181 0 20 -7 58 -15 85 -36 118 -19 136 210
238 28 12 61 27 75 34 44 19 113 14 181 -14z m2899 2 c0 -2 -7 -7 -16 -10 -8
-3 -12 -2 -9 4 6 10 25 14 25 6z m58 -54 c3 -9 -2 -13 -14 -10 -9 1 -19 9 -22
16 -3 9 2 13 14 10 9 -1 19 -9 22 -16z m12 -52 c0 -5 -4 -10 -10 -10 -5 0 -10
5 -10 10 0 6 5 10 10 10 6 0 10 -4 10 -10z m-2403 -22 c-3 -8 -6 -5 -6 6 -1
11 2 17 5 13 3 -3 4 -12 1 -19z m2453 -81 c17 -62 17 -77 -2 -77 -19 0 -56
138 -41 154 12 12 25 -11 43 -77z m1510 49 c0 -28 -12 -46 -31 -46 -23 0 -23
4 -3 35 18 28 34 33 34 11z m-1635 -15 c3 -5 1 -12 -5 -16 -5 -3 -10 1 -10 9
0 18 6 21 15 7z m1664 -103 c-1 -29 -6 -60 -9 -68 -9 -19 -29 -75 -42 -119 -5
-18 -18 -49 -29 -67 -10 -19 -19 -41 -19 -49 0 -8 -4 -15 -9 -15 -5 0 -12 -9
-16 -19 -3 -10 -16 -22 -28 -26 -49 -14 -161 -23 -191 -14 -17 5 -62 14 -100
19 -98 14 -99 17 -64 102 27 67 28 74 14 102 -15 30 -14 31 10 34 13 2 22 7
19 12 -3 5 -8 29 -10 54 -4 38 -1 47 15 56 26 14 36 7 43 -30 12 -58 106 -49
123 13 7 22 18 33 38 38 25 7 33 3 59 -27 21 -23 39 -34 58 -34 28 0 50 24 42
46 -5 16 17 32 52 37 17 2 34 5 38 6 4 0 7 -23 6 -51z m-5364 -152 c42 -18 43
-28 8 -56 -23 -18 -36 -21 -76 -16 -26 4 -59 11 -72 16 -27 10 -34 30 -11 30
7 0 19 6 26 14 6 8 28 17 48 19 20 2 38 4 40 5 1 1 18 -5 37 -12z m1528 -36
c-3 -11 -13 -20 -22 -19 -10 0 -11 2 -3 6 6 2 12 11 12 19 0 8 4 14 9 14 5 0
7 -9 4 -20z m2194 -92 c18 -26 33 -68 23 -68 -9 0 -34 49 -30 59 1 2 -4 8 -12
12 -8 5 -9 9 -2 9 6 0 16 -6 21 -12z m123 -87 c0 -6 -4 -13 -10 -16 -5 -3 -10
1 -10 9 0 9 5 16 10 16 6 0 10 -4 10 -9z m10 -57 c0 -8 -4 -12 -10 -9 -5 3
-10 13 -10 21 0 8 5 12 10 9 6 -3 10 -13 10 -21z m1527 -9 c0 -8 -9 -15 -19
-15 -16 0 -17 2 -6 15 17 19 25 19 25 0z m841 -1 c37 -18 62 -50 62 -78 0 -35
-23 -84 -42 -89 -34 -9 -33 -37 1 -64 20 -16 30 -31 27 -40 -3 -8 1 -47 9 -86
19 -92 19 -137 -1 -165 -32 -46 -114 -9 -114 51 0 18 -11 76 -24 130 -20 80
-23 104 -13 124 8 18 8 29 -1 44 -20 32 -15 117 9 147 11 15 28 30 37 34 9 4
17 7 18 7 0 1 15 -6 32 -15z m-875 -38 c5 -8 10 -7 16 3 12 19 102 -3 128 -32
28 -33 46 -83 40 -114 -3 -16 1 -42 8 -59 8 -20 9 -37 3 -47 -15 -27 -96 -57
-155 -57 -86 0 -92 -7 -86 -94 7 -94 0 -122 -37 -141 -38 -20 -60 -19 -88 5
-20 17 -23 29 -24 92 0 46 -6 82 -15 97 -14 22 -19 23 -74 17 -32 -4 -132 -9
-222 -11 -156 -4 -278 -22 -300 -44 -6 -6 -3 -29 8 -66 17 -52 17 -59 2 -91
-14 -29 -22 -34 -50 -34 -58 0 -88 50 -91 155 -1 18 -9 20 -76 23 -47 2 -91
-3 -121 -13 -26 -8 -69 -15 -96 -15 -26 -1 -59 -7 -73 -15 -29 -16 -54 -20
-45 -6 3 5 1 12 -5 16 -5 3 -10 37 -10 74 0 63 2 69 25 79 14 7 39 12 56 12
16 0 46 7 66 15 30 13 33 17 23 30 -10 13 -9 15 9 15 11 0 21 5 21 10 0 6 7
10 15 10 8 0 12 -6 9 -14 -14 -35 132 -66 164 -34 7 7 12 35 12 62 0 74 8 93
45 111 31 14 37 14 73 -1 26 -10 42 -23 46 -39 9 -36 -5 -85 -28 -97 -35 -18
-60 -49 -47 -57 20 -13 211 -3 284 14 52 12 77 13 107 5 41 -11 173 -3 203 12
20 10 57 80 81 153 24 72 62 97 136 88 30 -3 58 -11 63 -17z m443 -6 c18 -12
36 -30 39 -41 11 -33 -13 -74 -56 -98 -44 -25 -49 -44 -18 -77 25 -26 63 -203
54 -251 -9 -52 -62 -69 -105 -35 -16 13 -23 34 -30 87 -5 39 -16 90 -24 114
-23 62 -20 90 11 118 19 18 23 27 14 32 -7 5 -14 14 -15 22 -2 8 -6 26 -11 42
-8 32 9 82 34 97 27 16 72 11 107 -10z m-1826 -66 c0 -14 -4 -22 -10 -19 -5 3
-10 17 -10 31 0 14 4 22 10 19 6 -3 10 -17 10 -31z m-1328 -171 c9 -10 24 -44
34 -77 16 -50 31 -71 106 -147 146 -147 199 -171 362 -163 60 3 118 10 128 15
10 5 18 7 18 3 0 -4 8 0 18 8 26 24 103 57 140 62 22 2 42 14 59 35 17 20 35
31 51 31 40 0 196 -31 209 -41 7 -7 13 -5 16 3 2 7 8 9 13 5 12 -11 -14 -26
-36 -20 -27 7 -41 -26 -30 -73 19 -79 6 -184 -22 -184 -22 0 -38 -33 -43 -84
-4 -45 -2 -56 11 -56 12 0 13 -4 4 -20 -7 -13 -7 -26 -2 -37 6 -10 13 -36 16
-59 8 -44 9 -43 -56 -45 -21 0 -28 -5 -28 -20 0 -24 -21 -24 -62 1 -18 11 -29
20 -24 20 5 0 -3 11 -18 25 -45 42 -146 56 -146 20 0 -26 -20 -26 -30 0 -7 19
-15 25 -26 21 -8 -3 -22 1 -30 9 -9 8 -28 15 -43 15 -15 0 -31 4 -36 9 -11 9
-84 51 -154 88 -24 12 -58 33 -75 46 -39 30 -90 41 -105 23 -9 -10 -3 -20 24
-41 39 -29 59 -66 56 -104 -2 -38 -17 -48 -83 -55 -36 -3 -69 -13 -80 -23 -15
-14 -37 -17 -113 -15 -52 1 -95 -2 -95 -6 0 -15 -110 -12 -140 3 -22 12 -39
13 -70 6 l-40 -9 0 32 c0 47 21 80 55 86 26 5 30 9 27 35 -2 17 -13 40 -24 52
l-21 23 -55 -53 c-118 -112 -162 -157 -162 -166 0 -5 -19 -20 -42 -34 -24 -14
-60 -42 -81 -62 -30 -29 -41 -34 -51 -25 -15 11 -62 5 -83 -12 -19 -15 -71
-20 -92 -9 -14 8 -20 8 -23 -1 -9 -25 -44 27 -42 62 8 164 8 162 -14 179 -12
9 -24 30 -28 47 -6 31 -5 32 43 40 26 4 56 9 67 10 10 1 21 6 25 12 3 6 25 18
49 27 43 17 69 17 150 -4 112 -29 257 50 354 192 22 32 41 57 43 55 1 -2 -1
-34 -6 -72 -8 -66 -6 -87 7 -74 4 5 14 73 17 116 0 6 4 12 9 12 4 0 8 8 8 19
0 10 7 36 16 57 9 21 25 88 35 147 24 133 37 157 89 157 23 0 43 -7 52 -17z
m-2682 -58 c48 -17 65 -34 81 -85 30 -94 14 -211 -35 -253 -55 -48 -86 -60
-142 -53 -61 7 -100 38 -110 85 -3 14 -10 34 -15 44 -39 72 -21 200 35 249 26
23 41 28 87 28 31 0 76 -7 99 -15z m3344 -182 c-31 -22 -46 -15 -22 11 7 7 19
11 27 8 11 -4 10 -8 -5 -19z m-1954 -108 c10 -12 11 -32 3 -89 -11 -73 1 -186
26 -258 12 -35 -3 -37 -62 -7 -46 24 -58 36 -87 91 -28 53 -28 160 1 207 40
65 91 89 119 56z m2722 -208 c-2 -111 -7 -204 -12 -207 -4 -3 -11 -16 -15 -30
-7 -23 -6 -24 7 -6 13 17 15 11 21 -65 11 -141 9 -212 -9 -237 -11 -16 -20
-20 -27 -14 -7 6 -31 16 -55 23 -36 10 -46 20 -67 61 -17 33 -25 66 -25 100
l0 50 33 -7 c49 -11 49 -11 54 3 3 6 -2 12 -11 12 -22 0 -36 32 -36 85 0 25
-4 44 -9 41 -4 -3 -15 2 -24 12 -18 21 -19 173 -1 179 16 5 36 -49 44 -120 4
-34 8 -55 9 -46 0 8 13 26 27 40 45 41 57 81 43 152 -6 34 -18 70 -26 79 -8 9
-13 27 -11 40 4 21 6 19 21 -14 22 -49 37 -48 37 0 0 21 3 42 8 46 4 4 8 12 8
17 3 20 4 22 12 15 4 -4 5 -98 4 -209z m-2222 163 c0 -5 -4 -10 -10 -10 -5 0
-10 5 -10 10 0 6 5 10 10 10 6 0 10 -4 10 -10z m-20 -98 c-1 -18 -19 -34 -33
-29 -8 3 -19 1 -23 -3 -5 -5 -15 -5 -24 1 -13 9 -12 10 3 5 12 -4 17 0 17 13
0 13 8 18 30 19 17 0 30 -2 30 -6z m20 -62 c0 -5 -5 -10 -11 -10 -5 0 -7 5 -4
10 3 6 8 10 11 10 2 0 4 -4 4 -10z m-30 -24 c0 -3 -4 -8 -10 -11 -5 -3 -10 -1
-10 4 0 6 5 11 10 11 6 0 10 -2 10 -4z m-1380 -97 c49 -26 133 -117 161 -177
42 -85 5 -211 -79 -270 -44 -32 -127 -55 -171 -48 -66 10 -128 44 -174 96 -35
39 -46 59 -51 98 -8 58 15 189 40 227 55 84 187 119 274 74z m1028 0 c15 -23
7 -62 -11 -56 -14 4 -23 77 -10 77 4 0 14 -9 21 -21z m-21 -106 c-3 -10 -5 -4
-5 12 0 17 2 24 5 18 2 -7 2 -21 0 -30z m75 -72 c-2 -12 1 -28 6 -34 5 -7 10
-30 10 -52 1 -25 -2 -35 -7 -27 -4 8 -12 14 -17 14 -5 -1 -8 6 -6 14 2 8 -2
14 -8 14 -11 0 -14 58 -4 85 9 23 30 12 26 -14z m-2155 3 c26 -9 63 -30 81
-47 31 -30 33 -36 29 -82 -2 -27 -10 -51 -16 -53 -6 -2 -11 -8 -11 -12 0 -5
-15 -24 -32 -44 -34 -35 -91 -56 -103 -36 -4 6 -15 8 -25 5 -12 -4 -30 4 -52
22 -63 54 -143 102 -190 115 -34 9 -48 17 -51 32 -4 29 21 72 52 87 59 29 248
36 318 13z m3647 -40 c9 -8 16 -19 16 -24 0 -5 10 -19 22 -30 18 -16 20 -24
12 -38 -6 -9 -21 -18 -33 -20 -11 -2 -21 -8 -21 -13 0 -5 -7 -9 -15 -9 -8 0
-15 5 -15 10 0 6 4 10 9 10 5 0 11 18 13 41 3 38 3 40 -22 35 -14 -3 -20 -3
-14 0 6 2 9 16 6 29 -5 29 17 34 42 9z m-1557 -36 c-3 -8 -6 -5 -6 6 -1 11 2
17 5 13 3 -3 4 -12 1 -19z m23 -86 c0 -29 36 -79 43 -60 3 7 6 0 6 -16 1 -22
-3 -27 -15 -22 -10 4 -15 0 -13 -12 1 -9 0 -33 -1 -52 -2 -25 -7 -10 -17 50
-8 47 -16 97 -16 112 -1 14 -5 30 -9 34 -5 4 -8 12 -8 18 1 22 30 -29 30 -52z
m94 -191 c-1 -41 -6 -67 -16 -78 -14 -13 -16 -9 -23 44 -7 47 -9 53 -16 33 -7
-23 -7 -23 -8 8 -1 17 4 32 9 32 6 0 10 6 10 13 0 8 10 13 23 12 20 -2 22 -7
21 -64z m2746 -20 c0 -68 -31 -96 -50 -45 -13 33 -13 56 1 91 l11 28 19 -24
c10 -13 19 -35 19 -50z m-1380 39 c11 -7 3 -9 -27 -8 -24 1 -43 5 -43 10 0 11
52 10 70 -2z m-1443 -102 c-3 -8 -6 -5 -6 6 -1 11 2 17 5 13 3 -3 4 -12 1 -19z
m1933 -23 c0 -12 5 -26 12 -33 8 -8 5 -16 -13 -31 -25 -21 -59 -28 -59 -11 0
5 -7 7 -15 4 -10 -4 -15 0 -15 10 0 10 7 16 17 14 10 -2 18 3 18 12 0 8 9 30
20 47 20 34 35 29 35 -12z m-1900 -5 c0 -5 -5 -10 -11 -10 -5 0 -7 5 -4 10 3
6 8 10 11 10 2 0 4 -4 4 -10z m1400 -110 c0 -12 -65 -40 -92 -40 -13 0 -17 -4
-12 -12 6 -10 4 -10 -8 0 -13 10 -17 10 -21 0 -3 -7 -6 -1 -6 14 -1 30 9 35
84 41 22 2 43 4 48 5 4 1 7 -2 7 -8z m374 -23 c8 -12 8 -22 -1 -36 -6 -10 -14
-36 -17 -57 -3 -23 -3 -29 2 -16 l7 23 18 -21 c17 -20 17 -26 4 -86 -9 -40
-24 -74 -39 -88 -12 -13 -34 -42 -48 -65 -14 -22 -33 -41 -42 -41 -10 0 -20
-11 -24 -25 -9 -36 -44 -34 -44 2 0 50 -16 6 -19 -54 -1 -15 -73 -36 -81 -23
-3 5 -16 8 -28 7 -16 -1 -22 -7 -20 -21 2 -10 -3 -21 -10 -23 -7 -3 -10 1 -6
11 8 20 -10 20 -86 3 -30 -7 -86 -13 -125 -12 -65 0 -70 2 -73 22 -2 13 9 50
24 84 30 67 43 76 144 99 30 7 80 25 110 40 30 15 67 30 82 34 29 7 98 94 98
125 0 11 5 23 10 26 6 3 10 22 10 41 0 24 5 36 18 40 9 3 26 10 37 14 22 10
65 18 79 15 5 0 14 -9 20 -18z m-3247 -334 c27 -16 29 -21 21 -50 -12 -45 -41
-61 -176 -96 -182 -48 -278 -42 -374 23 -81 54 -50 100 68 100 40 0 76 -4 79
-10 11 -18 81 -10 181 21 55 17 104 32 109 34 18 7 62 -4 92 -22z m3831 -263
c17 -80 41 -203 52 -275 23 -136 30 -155 61 -155 28 0 170 -77 209 -114 54
-51 81 -66 121 -66 25 0 50 -10 80 -32 38 -28 116 -58 156 -61 7 0 10 -4 7 -8
-2 -5 15 -13 38 -19 24 -7 66 -27 94 -45 74 -49 161 -85 205 -85 44 0 119 -21
119 -32 0 -5 11 -8 24 -8 13 0 26 -7 30 -15 3 -8 11 -15 18 -15 34 0 92 -24
132 -54 31 -24 69 -40 132 -56 49 -12 104 -31 123 -42 19 -10 59 -24 90 -29
31 -6 75 -19 98 -30 24 -10 50 -19 58 -19 9 0 20 -10 25 -22 5 -13 9 -18 9
-12 1 8 16 9 54 2 28 -6 99 -7 157 -4 58 4 126 6 151 6 32 -1 48 4 52 14 7 17
67 36 114 36 17 0 35 5 38 10 3 6 -1 10 -10 10 -23 0 -61 38 -49 49 24 23 92
51 124 51 60 0 140 -12 140 -21 0 -5 -6 -8 -12 -7 -7 2 -12 -5 -12 -14 1 -11
-5 -18 -17 -18 -10 0 -19 -4 -19 -8 0 -9 167 -36 189 -30 7 1 16 -3 18 -9 3
-9 -8 -13 -36 -13 -37 0 -61 -14 -47 -27 3 -3 106 -5 228 -5 261 0 245 -13
-26 -23 -100 -3 -228 -10 -286 -15 -58 -5 -197 -10 -310 -12 -228 -2 -300 -6
-300 -18 0 -8 111 -49 215 -79 99 -27 155 -57 194 -104 35 -40 89 -70 113 -63
7 2 29 7 48 10 25 4 31 3 20 -4 -10 -7 9 -9 65 -5 325 20 422 20 442 3 27 -22
19 -23 -177 -32 -115 -5 -191 -14 -205 -25 -5 -5 -36 -16 -67 -26 -73 -22 -87
-38 -62 -66 12 -13 26 -18 40 -15 13 4 27 -1 38 -13 17 -18 16 -20 -3 -26 -24
-7 -26 -19 -8 -41 23 -28 32 -40 44 -59 67 -111 118 -193 129 -205 24 -29 54
-90 44 -90 -6 0 -10 4 -10 9 0 5 -20 17 -45 26 -24 10 -51 28 -60 41 -8 13
-25 24 -38 24 -28 1 -57 22 -57 44 0 9 -5 16 -11 16 -6 0 -24 14 -40 31 -29
31 -30 31 -49 14 -11 -10 -20 -24 -20 -32 0 -7 -3 -13 -8 -13 -8 0 -31 -47
-36 -76 -8 -42 -28 -110 -36 -119 -4 -5 -8 -34 -9 -62 -1 -33 -9 -65 -21 -85
-11 -18 -22 -40 -26 -48 -20 -52 -49 -117 -58 -128 -8 -11 -11 -11 -17 0 -12
18 -11 62 0 74 6 5 17 54 26 109 9 55 20 110 25 123 9 22 40 31 40 12 0 -5 5
-10 10 -10 13 0 13 33 -1 47 -6 6 -13 32 -15 59 -3 27 -10 52 -17 56 -8 5 -9
17 -1 47 14 50 13 313 -1 318 -6 2 -9 -19 -8 -53 1 -47 -2 -59 -22 -76 -12
-11 -31 -38 -41 -61 -10 -23 -25 -47 -34 -54 -8 -6 -15 -24 -16 -40 -2 -36
-50 -143 -64 -143 -21 0 -23 34 -11 154 7 67 15 146 17 176 2 30 6 66 9 80 6
31 -28 81 -44 65 -13 -13 -73 -237 -76 -280 -1 -16 -3 -51 -3 -78 -2 -45 -3
-47 -27 -41 -28 7 -29 4 -14 -50 9 -34 8 -40 -10 -57 -19 -18 -20 -27 -14
-108 4 -61 2 -90 -6 -95 -6 -4 -11 -1 -11 8 0 23 -27 20 -33 -4 -5 -21 -26
-19 -55 3 -10 8 -10 12 0 18 7 4 9 11 5 15 -3 4 -13 1 -22 -6 -12 -10 -18 -10
-30 0 -9 7 -25 10 -42 5 -21 -5 -24 -8 -12 -16 10 -6 2 -8 -26 -6 -22 1 -48
10 -57 20 -10 9 -25 17 -33 17 -19 0 -19 9 1 35 14 18 13 20 -8 26 -16 4 -22
12 -21 27 2 16 -3 22 -17 22 -26 0 -33 15 -19 41 10 20 9 21 -10 16 -11 -3
-21 -1 -21 4 0 5 5 9 10 9 6 0 10 7 10 15 0 8 -4 15 -10 15 -5 0 -7 6 -4 13 2
7 -9 20 -25 30 -28 16 -51 64 -51 105 0 6 -6 12 -14 12 -15 0 -26 21 -26 50 0
10 -10 31 -22 47 -31 38 -48 70 -48 88 0 9 -7 18 -15 21 -8 4 -15 12 -15 20 0
20 -58 127 -84 156 -13 13 -27 40 -31 59 -5 22 -24 49 -52 75 -34 31 -44 47
-39 61 4 12 -1 30 -12 44 -9 13 -23 36 -31 50 -21 42 -94 117 -124 129 -46 17
-72 4 -84 -42 -10 -38 -9 -42 16 -67 26 -25 51 -79 51 -105 0 -6 -7 -3 -15 8
-10 13 -21 17 -38 12 -17 -4 -33 1 -50 14 -14 11 -29 20 -34 20 -4 0 -17 15
-28 32 -39 62 -78 116 -122 168 -18 20 -30 39 -27 42 2 3 -11 19 -30 36 -32
28 -39 30 -65 21 l-29 -10 16 -32 c10 -17 22 -36 29 -42 16 -14 20 -57 6 -62
-7 -3 -13 0 -13 6 0 6 -4 11 -10 11 -5 0 -10 -9 -10 -20 0 -10 -7 -23 -17 -28
-14 -8 -8 -18 39 -63 30 -30 58 -66 61 -80 4 -14 17 -37 31 -50 13 -13 34 -40
47 -59 28 -42 101 -110 118 -110 6 0 30 -12 54 -27 43 -28 47 -30 71 -32 8 0
18 -11 22 -23 8 -29 28 -47 77 -73 37 -20 55 -51 44 -79 -3 -8 3 -22 14 -32
20 -18 26 -59 10 -68 -5 -4 -11 -2 -13 3 -2 6 -23 4 -52 -3 -53 -14 -44 -26
20 -26 27 0 34 -4 34 -20 0 -13 -7 -20 -20 -20 -17 0 -20 -7 -20 -40 0 -22 5
-40 10 -40 6 0 10 -12 10 -27 0 -38 13 -55 38 -51 l21 3 -20 43 c-25 55 -22
76 14 80 15 2 27 -1 27 -5 0 -5 8 -18 19 -29 21 -23 38 -94 21 -94 -5 0 -10 7
-10 15 0 8 -4 15 -10 15 -5 0 -10 10 -10 23 0 12 -5 29 -10 37 -16 24 -13 -10
5 -60 9 -26 12 -48 6 -57 -15 -27 -1 -55 24 -50 16 3 22 0 18 -10 -3 -7 1 -13
10 -13 9 0 16 -12 19 -33 3 -30 1 -33 -19 -29 -21 4 -23 1 -23 -37 0 -37 -2
-41 -25 -41 -28 0 -44 -25 -26 -43 8 -8 11 -5 11 11 0 25 8 27 45 10 34 -15
32 -23 -12 -41 l-38 -16 32 0 c35 -1 73 -33 73 -62 0 -10 6 -20 13 -22 7 -4 3
-8 -10 -12 -34 -11 -28 -22 25 -45 49 -21 72 -53 72 -98 0 -22 -2 -23 -17 -11
-10 9 -18 10 -20 3 -2 -7 -17 -7 -49 0 -34 8 -46 16 -50 33 -8 31 -40 30 -48
-2 -7 -28 -22 -32 -46 -10 -14 13 -19 13 -36 0 -18 -14 -18 -14 7 -15 18 0 28
-7 32 -20 4 -16 11 -19 30 -15 21 6 26 2 36 -26 16 -46 14 -52 -14 -45 -18 5
-25 2 -25 -8 0 -8 -7 -17 -16 -20 -11 -4 -19 4 -30 29 -7 19 -14 41 -14 50 0
9 -6 15 -12 13 -7 -1 -26 1 -41 5 -21 6 -27 13 -25 29 2 12 -3 23 -9 25 -7 3
-13 0 -13 -6 0 -6 -16 -11 -35 -11 -24 0 -35 -5 -35 -15 0 -8 -6 -15 -13 -15
-14 0 -47 35 -47 50 0 6 -7 13 -15 16 -8 4 -15 18 -15 33 0 14 -7 35 -15 45
-8 11 -15 27 -15 35 0 8 -9 24 -19 35 -17 19 -18 26 -9 68 10 41 9 50 -5 66
-20 22 -22 43 -5 60 9 9 10 15 2 20 -13 9 -44 86 -44 110 0 10 -9 28 -20 40
-11 12 -20 35 -20 52 0 17 -9 39 -20 50 -14 14 -20 33 -20 63 0 25 -10 62 -25
91 -14 27 -25 53 -25 58 0 15 -27 38 -44 38 -9 0 -16 6 -16 14 0 15 -21 26
-52 26 -13 0 -18 5 -15 14 4 9 -3 16 -18 19 -14 2 -22 0 -19 -4 3 -5 -9 -9
-25 -9 -34 0 -39 -11 -16 -30 9 -7 22 -29 31 -49 9 -20 20 -44 25 -53 5 -10 9
-24 9 -32 0 -7 7 -19 15 -26 8 -6 14 -19 13 -28 -1 -10 0 -41 0 -69 2 -40 6
-53 17 -53 8 0 15 -9 15 -20 0 -23 -28 -27 -36 -5 -4 8 -15 15 -25 15 -10 0
-19 5 -19 10 0 6 -12 10 -27 11 -28 0 -28 0 -5 10 13 5 28 6 33 3 6 -3 7 6 3
23 -9 38 -9 38 -40 14 -15 -11 -33 -21 -40 -21 -8 0 -14 -6 -14 -14 0 -19 -26
-27 -39 -12 -8 9 -8 29 -1 65 12 62 16 71 37 71 14 0 14 3 -2 20 -19 21 -8 29
12 9 9 -9 11 4 7 52 -6 81 -11 97 -35 109 -16 9 -21 7 -28 -12 -10 -25 -18
-49 -20 -61 0 -4 -14 -19 -30 -35 -19 -18 -37 -55 -56 -112 -15 -47 -36 -99
-48 -116 l-20 -31 -24 20 c-27 24 -30 42 -8 51 25 9 -4 48 -30 40 -11 -4 -22
-9 -25 -13 -3 -3 -15 -12 -28 -19 -22 -12 -23 -12 -12 8 6 11 17 20 25 20 8 0
15 4 15 9 0 5 33 43 73 85 98 102 136 146 155 179 9 15 20 27 24 27 4 0 8 9 8
20 0 11 4 20 9 20 11 0 65 120 81 180 6 25 16 53 21 63 5 10 12 60 16 111 5
88 4 95 -17 116 -17 17 -21 30 -17 56 3 19 2 34 -4 34 -5 0 -9 -4 -9 -10 0 -5
-4 -10 -10 -10 -5 0 -10 11 -10 24 0 19 4 23 20 19 11 -3 20 0 20 6 0 12 -27
14 -82 5 -37 -6 -54 -24 -23 -24 8 0 15 -9 15 -20 0 -11 -7 -20 -15 -20 -8 0
-15 -6 -16 -12 0 -7 -4 -4 -9 7 -6 14 -8 4 -7 -34 1 -43 6 -57 26 -72 18 -14
20 -19 7 -19 -9 0 -16 5 -16 11 0 19 -23 4 -26 -17 -4 -42 -34 -148 -42 -153
-5 -3 -18 -22 -28 -41 -59 -108 -138 -194 -334 -358 -41 -35 -183 -122 -198
-122 -6 0 -12 -4 -14 -10 -3 -10 -132 -61 -152 -59 -6 0 -6 3 2 6 6 2 12 13
12 23 0 10 4 21 9 24 5 3 27 44 49 90 23 46 46 87 51 91 6 3 11 25 11 48 1 50
14 75 58 112 19 16 32 36 32 50 0 16 8 26 23 31 12 3 30 13 39 21 11 10 26 13
48 8 22 -5 30 -3 28 6 -2 7 11 22 29 33 18 12 32 28 33 38 0 9 12 25 26 35 23
17 26 27 27 84 1 42 8 72 19 88 9 13 15 28 12 33 -3 4 6 8 20 8 21 0 26 5 26
25 0 14 -4 25 -10 25 -12 0 -14 77 -2 84 9 5 14 41 15 103 1 27 -13 120 -30
203 -4 22 -6 23 -15 7 -5 -10 -7 -25 -4 -33 3 -8 -1 -14 -9 -14 -8 0 -15 -6
-15 -14 0 -16 -45 -66 -60 -66 -5 0 -10 -6 -10 -13 0 -7 -16 -21 -35 -30 -36
-17 -45 -32 -23 -39 8 -3 3 -14 -15 -30 -15 -14 -27 -30 -27 -37 0 -6 -3 -10
-7 -9 -5 0 -16 -2 -26 -7 -32 -14 -41 8 -28 71 6 32 11 78 11 102 0 25 4 73
10 106 5 34 16 124 25 201 9 77 22 174 30 215 22 122 33 190 47 283 14 103 15
101 56 -93z m-3044 145 c20 -15 30 -75 13 -72 -6 1 -17 -11 -25 -26 -11 -23
-19 -28 -44 -25 -27 3 -33 9 -44 48 -12 41 -12 46 8 67 24 26 64 29 92 8z
m-1410 -586 c14 -7 27 -17 29 -23 7 -20 -13 -76 -28 -76 -24 0 -65 46 -65 72
0 40 18 48 64 27z m4533 -271 c-3 -8 -6 -5 -6 6 -1 11 2 17 5 13 3 -3 4 -12 1
-19z m-1875 -81 c14 -7 33 -20 42 -30 10 -9 22 -15 27 -12 5 4 9 -3 9 -14 0
-12 6 -21 13 -21 12 0 37 -44 37 -67 0 -7 -7 -13 -15 -13 -8 0 -15 9 -15 20 0
27 -18 26 -22 -1 -3 -21 -5 -20 -38 11 -23 22 -34 41 -34 59 1 21 0 22 -3 4
-8 -41 -33 -27 -33 17 0 25 -5 40 -12 40 -9 0 -8 4 2 10 18 12 13 12 42 -3z
m-262 -25 c0 -9 -56 -62 -65 -62 -15 0 -2 27 23 47 29 24 42 28 42 15z m-112
-64 c-6 -17 -54 -40 -76 -36 -12 2 -8 9 18 25 39 25 64 30 58 11z m362 -150
c0 -5 -4 -8 -10 -8 -5 0 -10 10 -10 23 0 18 2 19 10 7 5 -8 10 -18 10 -22z
m-560 -7 c0 -17 -18 -21 -24 -6 -3 9 0 15 9 15 8 0 15 -4 15 -9z m-33 -25 c-3
-8 -1 -16 5 -18 7 -3 -6 -28 -28 -59 -22 -30 -48 -67 -59 -84 -10 -16 -27 -39
-38 -50 -10 -11 -26 -30 -34 -42 -9 -13 -21 -23 -27 -23 -19 0 -40 -68 -26
-85 19 -23 -7 -133 -37 -152 -13 -9 -22 -18 -19 -20 3 -3 -5 -15 -17 -28 -40
-41 -57 -65 -57 -79 0 -8 -20 -34 -44 -58 -24 -23 -56 -69 -71 -100 -15 -31
-33 -59 -41 -62 -8 -3 -14 -11 -14 -18 0 -7 -9 -19 -21 -26 -12 -8 -18 -19
-15 -28 4 -9 -6 -28 -24 -46 -17 -16 -30 -34 -30 -40 0 -7 -7 -19 -15 -28 -8
-9 -16 -25 -18 -36 -4 -26 -47 -71 -72 -76 -17 -3 -19 -10 -16 -46 3 -45 -21
-88 -41 -76 -6 4 -23 -3 -39 -15 -36 -27 -39 -26 -39 3 0 13 -5 26 -11 28 -12
4 5 58 22 69 5 3 11 15 14 28 2 12 0 19 -4 17 -4 -3 -24 9 -45 26 -20 16 -48
31 -61 32 -14 0 -27 7 -30 14 -9 24 -27 13 -21 -13 9 -36 -2 -71 -27 -84 l-22
-12 22 5 c29 5 43 -12 47 -63 3 -40 31 -81 55 -81 6 0 15 -9 21 -20 9 -17 6
-24 -16 -45 -25 -23 -29 -24 -37 -10 -8 15 -11 14 -29 -5 -19 -21 -19 -22 -2
-35 18 -13 18 -15 -6 -37 -23 -22 -23 -23 -5 -26 32 -6 39 -19 16 -32 -18 -9
-21 -17 -15 -46 4 -21 2 -40 -6 -49 -14 -16 -40 -9 -40 12 0 8 -12 18 -27 24
-20 6 -28 17 -29 35 -1 14 -9 33 -17 42 -8 9 -13 22 -10 28 2 6 -6 19 -17 29
-11 10 -20 23 -20 28 0 6 -18 28 -40 48 -22 21 -40 41 -40 46 0 15 -25 63 -32
63 -5 0 -8 5 -8 11 0 6 -8 22 -19 35 -10 13 -22 43 -25 67 -5 29 -16 52 -36
71 -18 16 -30 38 -30 53 0 20 -3 23 -21 18 -15 -5 -19 -4 -15 4 4 6 -5 22 -21
35 -16 13 -35 36 -42 50 -8 14 -20 26 -28 26 -15 0 -17 -21 -4 -35 5 -6 26
-53 46 -105 20 -52 41 -100 46 -106 6 -7 6 -21 0 -37 -11 -28 -4 -70 10 -61 5
3 9 -2 9 -10 0 -24 -20 -29 -41 -10 -10 9 -19 21 -19 25 0 4 -10 19 -23 32
-23 26 -55 112 -59 162 l-3 30 -28 -27 c-23 -23 -27 -35 -27 -85 0 -38 -6 -67
-16 -82 -13 -18 -14 -28 -5 -47 6 -14 11 -36 11 -50 0 -24 -1 -24 -25 -8 -15
10 -27 30 -31 50 -7 40 -35 44 -41 6 -3 -25 -31 -72 -42 -72 -12 0 -7 78 7 92
6 6 12 16 12 20 0 5 9 19 20 30 12 14 16 24 10 28 -15 9 0 42 15 36 7 -2 15 4
18 15 3 10 1 19 -4 19 -5 0 -4 9 3 20 7 11 17 20 23 20 14 0 37 38 25 42 -13
4 77 175 104 197 10 9 13 22 9 42 -10 50 64 108 81 64 3 -8 3 -21 0 -29 -3 -8
-1 -17 5 -21 6 -3 11 -2 11 4 0 5 28 23 63 39 34 17 89 46 121 66 33 20 68 36
78 36 10 0 18 4 18 10 0 8 -54 -5 -104 -25 -40 -17 -9 18 39 44 28 14 64 36
81 48 17 13 76 43 130 69 55 25 132 61 171 80 40 19 77 34 82 34 5 0 14 6 20
14 10 12 5 15 -28 21 -22 4 -45 4 -51 0 -16 -10 -171 6 -164 17 3 5 11 7 17 5
7 -2 24 2 38 9 20 10 30 26 39 63 11 46 14 49 53 60 116 30 225 43 317 37 52
-3 123 -7 157 -8 54 -1 60 -3 45 -14 -9 -7 -21 -14 -26 -14 -11 0 -95 -68
-118 -95 -41 -48 -10 -40 77 20 33 23 74 49 92 58 17 9 37 23 45 30 7 7 38 26
70 41 61 30 103 66 76 66 -8 0 -27 -9 -42 -21 -14 -11 -31 -19 -38 -17 -6 2 6
15 28 28 21 13 52 34 67 47 32 26 52 30 44 9z m2843 -82 c0 -14 -4 -23 -10
-19 -5 3 -10 15 -10 26 0 10 5 19 10 19 6 0 10 -12 10 -26z m3020 -24 c-8 -5
-26 -10 -40 -10 -20 0 -22 2 -10 10 8 5 26 10 40 10 20 0 22 -2 10 -10z
m-3050 -25 c9 -11 7 -12 -10 -8 -13 4 -25 0 -31 -8 -6 -11 -11 -11 -21 -1 -9
9 -9 12 0 12 7 0 12 6 12 14 0 17 34 11 50 -9z m-50 -51 c0 -8 -5 -12 -10 -9
-6 4 -8 11 -5 16 9 14 15 11 15 -7z m-5043 -180 c-3 -3 -12 -4 -19 -1 -8 3 -5
6 6 6 11 1 17 -2 13 -5z m1023 -289 c-7 -8 -18 -15 -24 -15 -6 0 -2 7 8 15 25
19 32 19 16 0z m3183 -166 c-6 -6 -28 -12 -49 -14 -22 -1 -30 0 -19 2 11 3 24
9 30 14 14 13 52 12 38 -2z m-123 -29 c0 -5 -13 -10 -29 -10 -16 0 -38 -3 -48
-6 -12 -5 -15 -4 -8 4 6 6 24 12 40 15 17 2 33 5 38 6 4 0 7 -3 7 -9z m657 -7
c2 -5 -16 -19 -40 -29 -24 -10 -44 -23 -45 -28 -1 -6 -7 -11 -14 -12 -7 -1
-22 -5 -33 -10 -16 -6 -14 -1 9 24 19 20 43 33 70 38 22 4 35 9 28 11 -6 3 -9
9 -6 14 7 12 26 7 31 -8z m456 -90 c-4 -10 -2 -14 4 -10 6 4 19 4 29 0 16 -6
16 -7 -1 -19 -15 -11 -23 -11 -46 2 -36 18 -38 44 -4 44 19 0 23 -4 18 -17z
m-3073 -33 c7 -22 19 -40 27 -40 7 0 13 -7 13 -15 0 -8 9 -15 20 -15 13 0 20
-7 20 -20 0 -11 -4 -20 -10 -20 -5 0 -15 9 -22 20 -29 45 -54 7 -46 -70 4 -45
3 -46 -20 -23 -16 16 -17 15 -20 -13 -1 -16 -7 -38 -12 -49 -5 -11 -14 -33
-20 -48 -6 -16 -19 -31 -29 -34 -18 -5 -26 -23 -37 -81 -5 -27 -34 -62 -51
-62 -12 0 -17 -24 -14 -62 1 -10 -3 -18 -9 -18 -7 0 -10 7 -6 15 4 11 -1 15
-19 15 -21 0 -25 5 -25 29 0 17 -5 33 -10 36 -6 4 7 25 30 48 28 30 35 43 25
45 -20 5 -19 22 1 22 12 0 15 7 12 29 -3 23 1 32 18 41 16 9 24 25 29 57 6 41
51 161 65 173 3 3 11 17 17 33 7 15 17 27 23 27 6 0 8 5 5 10 -3 6 2 10 13 10
13 0 23 -12 32 -40z m2470 20 c0 -5 -22 -16 -49 -25 -27 -9 -52 -23 -55 -31
-4 -11 -14 -14 -35 -9 -19 4 -34 1 -44 -9 -18 -18 -93 -37 -114 -29 -15 6 -7
10 129 57 37 13 82 33 100 43 31 19 68 20 68 3z m690 -10 c0 -5 -4 -10 -9 -10
-6 0 -13 5 -16 10 -3 6 1 10 9 10 9 0 16 -4 16 -10z m-440 -25 c0 -14 -4 -25
-10 -25 -5 0 -10 11 -10 25 0 14 5 25 10 25 6 0 10 -11 10 -25z m2280 -35 c0
-5 -4 -10 -10 -10 -5 0 -10 5 -10 10 0 6 5 10 10 10 6 0 10 -4 10 -10z m-2280
-18 c0 -14 -11 -21 -26 -15 -8 3 -11 9 -8 14 7 11 34 12 34 1z m-2590 -48 c0
-8 18 -34 40 -56 54 -56 52 -72 -5 -44 -24 11 -45 25 -45 29 0 5 5 5 10 2 6
-3 10 -1 10 4 0 6 -6 11 -14 11 -18 0 -27 26 -20 56 6 25 24 24 24 -2z m1983
19 c-7 -2 -19 -2 -25 0 -7 3 -2 5 12 5 14 0 19 -2 13 -5z m-233 -39 c0 -14 -3
-14 -15 -4 -8 7 -15 14 -15 16 0 2 7 4 15 4 8 0 15 -7 15 -16z m60 1 c0 -8 5
-15 10 -15 6 0 10 -11 10 -25 0 -16 -6 -25 -15 -25 -9 0 -15 9 -15 25 0 18 -5
25 -20 25 -11 0 -20 7 -20 15 0 9 9 15 25 15 16 0 25 -6 25 -15z m1983 -92 c3
-5 1 -19 -5 -32 -8 -23 -10 -23 -25 -8 -13 13 -14 19 -3 31 14 17 26 20 33 9z
m-5525 -108 c-3 -14 -1 -25 3 -25 12 0 11 -11 -1 -30 -8 -13 -12 -13 -27 4
-13 13 -15 20 -5 23 6 3 12 13 12 22 0 17 8 31 18 31 2 0 2 -11 0 -25z m972
-40 c0 -8 -4 -15 -10 -15 -5 0 -10 7 -10 15 0 8 5 15 10 15 6 0 10 -7 10 -15z
m2374 -61 c8 -38 22 -43 42 -16 13 16 13 16 14 -1 0 -15 3 -16 20 -7 34 18 57
-2 57 -52 0 -23 5 -44 12 -46 14 -5 15 -42 1 -42 -5 0 -10 -5 -10 -10 0 -6 8
-5 20 2 34 21 55 -1 58 -61 3 -48 5 -51 30 -51 34 0 57 -14 48 -29 -11 -17
-40 -13 -64 9 -12 11 -26 20 -31 20 -19 0 -61 23 -61 34 0 13 -145 166 -157
166 -16 1 -53 38 -62 63 -8 19 -6 28 7 40 41 35 68 29 76 -19z m-2743 -44 c9
-19 14 -40 12 -48 -6 -13 -14 -10 -15 5 0 4 -9 25 -20 47 -14 26 -16 37 -6 34
7 -3 20 -20 29 -38z m5899 -21 c0 -10 -7 -19 -15 -19 -16 0 -19 9 -9 34 8 20
24 11 24 -15z m-2940 -34 c0 -33 -36 -35 -42 -2 -4 18 0 23 19 25 18 1 23 -3
23 -23z m2905 -37 c-7 -32 -8 -32 -17 -9 -5 15 -4 28 3 38 17 20 22 9 14 -29z
m-5159 -51 c32 -37 35 -44 24 -71 -7 -19 -6 -32 2 -45 8 -13 8 -23 0 -37 -10
-17 -11 -16 -12 11 l0 29 -16 -22 c-26 -37 -37 -27 -29 28 5 34 3 50 -4 50
-12 0 -15 38 -5 64 8 22 17 20 40 -7z m4014 12 c0 -6 -5 -20 -11 -31 -9 -17
-13 -18 -20 -7 -16 25 -10 49 11 49 11 0 20 -5 20 -11z m-2399 -41 c32 -17 62
-23 111 -23 36 0 64 -3 62 -7 -9 -15 10 -39 27 -35 20 5 27 -17 9 -28 -5 -3
-10 -1 -10 5 0 6 -4 8 -10 5 -17 -11 -11 -25 11 -25 19 0 21 -4 16 -32 -4 -18
-9 -43 -13 -55 -5 -19 -2 -23 15 -23 12 0 21 -6 21 -15 0 -17 16 -20 25 -4 5
8 55 -71 55 -88 0 -10 -50 -1 -60 12 -10 12 -14 12 -26 0 -8 -7 -14 -18 -14
-24 0 -6 -9 -11 -20 -11 -16 0 -19 5 -14 29 6 28 5 30 -32 33 -22 2 -40 9 -40
16 -1 6 -2 16 -3 21 0 5 -10 12 -20 16 -24 7 -37 43 -22 58 16 16 14 37 -4 37
-8 0 -25 11 -37 25 -16 19 -24 22 -30 13 -5 -8 -8 -3 -8 14 0 15 -8 32 -17 38
-13 8 -14 13 -5 16 6 3 12 12 12 20 0 9 -4 13 -9 10 -5 -3 -14 1 -21 9 -18 21
-1 19 51 -7z m692 -35 c-7 -2 -21 -2 -30 0 -10 3 -4 5 12 5 17 0 24 -2 18 -5z
m1915 -5 c-6 -18 -28 -21 -28 -4 0 9 7 16 16 16 9 0 14 -5 12 -12z m-1812
-175 c-10 -10 -19 5 -10 18 6 11 8 11 12 0 2 -7 1 -15 -2 -18z m1545 -18 c10
-4 19 -9 20 -13 0 -4 2 -14 5 -22 21 -78 13 -90 -28 -42 -18 21 -24 42 -25 78
0 27 1 39 4 27 2 -12 13 -25 24 -28z m-2081 -105 c0 -5 6 -10 13 -10 24 0 76
-30 96 -56 10 -13 23 -24 29 -24 9 0 26 -30 20 -35 -10 -8 -98 -13 -98 -6 0 6
10 11 22 13 23 3 38 28 17 28 -6 0 -17 7 -23 15 -10 14 -13 14 -31 1 -20 -15
-20 -15 0 -16 20 -1 20 -1 1 -15 -28 -21 -49 -19 -44 3 3 10 -1 27 -8 37 -16
22 -19 75 -4 75 6 0 10 -4 10 -10z m2140 -40 c0 -5 -2 -10 -4 -10 -3 0 -8 5
-11 10 -3 6 -1 10 4 10 6 0 11 -4 11 -10z m2280 -304 c0 -32 -22 -75 -36 -69
-19 7 -18 39 4 62 21 23 32 26 32 7z m114 -168 c13 -19 14 -24 2 -37 -16 -17
-16 -18 -16 -56 0 -15 -7 -28 -17 -32 -10 -4 -29 -15 -42 -25 -13 -10 -31 -18
-40 -18 -14 1 -14 2 2 11 12 7 15 17 11 34 -8 31 23 96 42 88 10 -3 16 5 20
26 8 37 17 39 38 9z m-264 -148 c0 -5 -4 -10 -10 -10 -5 0 -10 5 -10 10 0 6 5
10 10 10 6 0 10 -4 10 -10z m310 -74 c0 -2 -11 -6 -25 -8 -14 -3 -25 -1 -25 3
0 5 11 9 25 9 14 0 25 -2 25 -4z m-340 -340 c0 -3 -4 -8 -10 -11 -5 -3 -10 -1
-10 4 0 6 5 11 10 11 6 0 10 -2 10 -4z"/>
<path d="M4228 9051 c-15 -3 -48 -23 -73 -44 -34 -29 -45 -45 -45 -67 0 -52 8
-60 59 -60 26 0 56 -7 67 -15 24 -18 88 -19 103 -2 6 8 8 16 5 19 -3 3 2 22
10 42 8 20 11 36 5 36 -5 0 -9 13 -9 29 0 24 -7 32 -45 50 -25 12 -46 20 -47
20 -2 -1 -15 -4 -30 -8z"/>
<path d="M4190 8699 c-24 -10 -40 -26 -40 -43 0 -5 8 -2 18 6 9 8 29 18 45 22
15 3 27 11 27 16 0 12 -17 12 -50 -1z"/>
<path d="M4020 8676 c0 -9 7 -16 16 -16 17 0 14 22 -4 28 -7 2 -12 -3 -12 -12z"/>
<path d="M3955 8648 c-16 -6 -37 -17 -46 -24 -8 -8 -20 -14 -25 -14 -5 0 -22
-11 -38 -25 -38 -33 -28 -32 42 4 31 16 76 32 100 36 26 4 41 12 39 18 -5 16
-36 18 -72 5z"/>
<path d="M4050 8644 c0 -9 7 -14 17 -12 25 5 28 28 4 28 -12 0 -21 -6 -21 -16z"/>
<path d="M3715 8419 c-9 -14 -2 -20 14 -10 8 6 9 11 3 15 -6 3 -14 1 -17 -5z"/>
<path d="M5723 7663 c-4 -9 -1 -19 5 -21 7 -2 12 -12 12 -22 0 -9 7 -23 15
-30 16 -14 18 -10 15 34 -1 23 2 28 14 23 27 -11 17 7 -11 21 -35 16 -42 15
-50 -5z"/>
<path d="M5798 7618 c-7 -21 15 -98 28 -98 15 0 23 25 20 58 -3 26 -42 59 -48
40z"/>
<path d="M5540 7560 c0 -19 3 -21 12 -12 9 9 9 15 0 24 -9 9 -12 7 -12 -12z"/>
<path d="M5555 7441 c-6 -11 20 -33 28 -24 4 3 7 10 7 14 0 11 -29 19 -35 10z"/>
<path d="M3530 5909 c0 -5 5 -7 10 -4 6 3 10 8 10 11 0 2 -4 4 -10 4 -5 0 -10
-5 -10 -11z"/>
<path d="M5960 4571 c0 -29 11 -51 25 -51 14 0 143 -124 162 -155 11 -18 12
-17 12 13 1 57 -34 110 -124 183 -11 9 -32 19 -47 23 -23 5 -28 3 -28 -13z"/>
<path d="M6320 4387 c0 -21 26 -41 35 -27 4 6 5 12 4 13 -2 2 -12 9 -21 16
-15 11 -18 11 -18 -2z"/>
<path d="M6161 4320 c0 -14 4 -34 9 -45 7 -17 9 -16 9 10 0 17 -4 37 -9 45 -8
12 -10 10 -9 -10z"/>
<path d="M5932 3829 c2 -6 8 -10 13 -10 5 0 11 4 13 10 2 6 -4 11 -13 11 -9 0
-15 -5 -13 -11z"/>
<path d="M6440 3802 c0 -12 44 -52 58 -52 20 0 13 28 -10 44 -24 17 -48 21
-48 8z"/>
<path d="M6560 3640 c0 -5 5 -10 11 -10 5 0 7 5 4 10 -3 6 -8 10 -11 10 -2 0
-4 -4 -4 -10z"/>
<path d="M6345 3530 c-3 -5 -1 -10 4 -10 6 0 11 5 11 10 0 6 -2 10 -4 10 -3 0
-8 -4 -11 -10z"/>
<path d="M6310 3480 c-10 -6 -10 -11 1 -22 14 -16 62 -12 56 5 -5 15 -42 26
-57 17z"/>
<path d="M6500 3430 c0 -5 5 -10 10 -10 6 0 10 5 10 10 0 6 -4 10 -10 10 -5 0
-10 -4 -10 -10z"/>
<path d="M6960 3326 c0 -9 5 -16 10 -16 6 0 10 4 10 9 0 6 -4 13 -10 16 -5 3
-10 -1 -10 -9z"/>
<path d="M6955 2993 c-4 -16 -10 -46 -15 -67 -6 -29 -5 -44 6 -62 12 -17 13
-27 4 -43 -17 -33 -30 -25 -30 19 0 22 -4 40 -10 40 -5 0 -10 -18 -10 -40 0
-22 4 -40 8 -40 4 0 7 -39 6 -87 -2 -65 1 -92 12 -104 15 -17 9 -49 -9 -49 -8
0 -8 -3 0 -11 13 -13 43 10 43 33 1 8 5 7 14 -5 16 -21 21 -16 31 31 4 18 13
32 21 32 21 0 17 17 -6 23 -28 7 -25 26 5 37 28 10 33 37 10 46 -8 4 -12 10
-9 15 3 5 9 7 13 4 13 -8 45 21 37 34 -4 6 -23 18 -42 26 -23 9 -34 21 -34 35
0 17 3 18 19 9 10 -7 26 -9 37 -5 18 8 18 8 -1 15 -19 8 -19 8 0 19 20 12 20
12 1 27 -11 8 -37 15 -58 15 -31 0 -38 4 -38 20 0 13 7 20 20 20 13 0 20 7 20
20 0 32 -38 26 -45 -7z"/>
<path d="M7090 2950 c0 -5 7 -10 15 -10 8 0 15 5 15 10 0 6 -7 10 -15 10 -8 0
-15 -4 -15 -10z"/>
<path d="M7120 2911 c0 -14 5 -19 15 -14 17 6 15 25 -3 31 -7 2 -12 -5 -12
-17z"/>
<path d="M7879 2918 c0 -2 -2 -22 -5 -45 -4 -38 -3 -43 16 -43 17 0 19 3 11
18 -6 10 -8 28 -5 39 3 12 1 24 -5 27 -6 4 -11 6 -12 4z"/>
<path d="M7112 2840 c0 -19 2 -27 5 -17 2 9 2 25 0 35 -3 9 -5 1 -5 -18z"/>
<path d="M7040 2620 c0 -5 7 -10 16 -10 8 0 12 5 9 10 -3 6 -10 10 -16 10 -5
0 -9 -4 -9 -10z"/>
<path d="M7076 2584 c-4 -10 -13 -14 -26 -11 -31 8 -21 -24 12 -36 18 -6 43
15 30 27 -4 4 7 6 23 4 21 -2 30 1 30 12 0 22 -61 26 -69 4z"/>
<path d="M7178 2563 c7 -3 16 -2 19 1 4 3 -2 6 -13 5 -11 0 -14 -3 -6 -6z"/>
<path d="M7265 2507 c-4 -10 -5 -21 -1 -24 10 -10 18 4 13 24 -4 17 -4 17 -12
0z"/>
<path d="M2658 3733 c7 -3 16 -2 19 1 4 3 -2 6 -13 5 -11 0 -14 -3 -6 -6z"/>
<path d="M2775 3577 c-74 -40 -114 -67 -97 -67 15 0 139 62 167 84 35 27 -5
17 -70 -17z"/>
<path d="M2625 3480 c-3 -5 -1 -10 4 -10 6 0 11 5 11 10 0 6 -2 10 -4 10 -3 0
-8 -4 -11 -10z"/>
<path d="M1942 2995 c-14 -31 -15 -35 -3 -35 9 0 25 49 18 56 -2 2 -9 -7 -15
-21z"/>
<path d="M2481 2944 c0 -11 3 -14 6 -6 3 7 2 16 -1 19 -3 4 -6 -2 -5 -13z"/>
<path d="M2480 2520 c0 -5 5 -10 10 -10 6 0 10 5 10 10 0 6 -4 10 -10 10 -5 0
-10 -4 -10 -10z"/>
<path d="M5225 2330 c-3 -5 3 -10 15 -10 12 0 18 5 15 10 -3 6 -10 10 -15 10
-5 0 -12 -4 -15 -10z"/>
</g>
</svg>
